<?xml version="1.0" encoding="UTF-8"?>
<!DOCTYPE svg PUBLIC "-//W3C//DTD SVG 1.1//EN" "http://www.w3.org/Graphics/SVG/1.1/DTD/svg11.dtd">
<!-- Creator: CorelDRAW 2020 (64-Bit) -->
<svg xmlns="http://www.w3.org/2000/svg" xml:space="preserve" width="217.64mm" height="116.343mm" version="1.1" style="shape-rendering:geometricPrecision; text-rendering:geometricPrecision; image-rendering:optimizeQuality; fill-rule:evenodd; clip-rule:evenodd"
viewBox="0 0 21764 11634.3"
 xmlns:xlink="http://www.w3.org/1999/xlink"
 xmlns:xodm="http://www.corel.com/coreldraw/odm/2003">
 <defs>
  <style type="text/css">
   <![CDATA[
    .str0 {stroke:#2B2A29;stroke-width:52.92;stroke-miterlimit:22.9256}
    .fil2 {fill:none}
    .fil1 {fill:#155BFB}
    .fil0 {fill:#C2E1FF}
    .fil3 {fill:#2B2A29;fill-rule:nonzero}
   ]]>
  </style>
   <clipPath id="id0">
    <path d="M20482.58 1558.61l-140.21 -638.75 607.59 -373.9 -327.16 -545.27 -327.17 31.16 -249.27 405.05 -1293.06 576.44 -607.58 1293.07 -934.75 93.47 -1230.75 607.58 -685.49 1028.22 -327.16 -249.27 -233.69 -389.47 -591.99 31.16 -280.42 358.31 -747.8 -155.79 296 -436.21 -420.64 -280.42 -296 -311.59 -482.96 186.95 -373.9 389.48 -810.1 264.84 -186.95 264.85 -825.7 93.48 -296 -296.01 -638.75 467.37 -93.47 592.01 -623.16 -592.01 -607.58 0 -529.7 -358.31 -498.52 -15.59 -373.9 -280.42 -467.37 46.73 -716.65 -15.57 93.47 -482.95 342.75 -124.63 249.26 405.06 327.16 -62.33 93.48 -716.63 -296 -763.37 -451.8 155.78 -763.37 482.95 -451.8 560.85 -872.43 93.47 -1121.7 592.01 -15.57 592.01 -280.42 467.37 -264.85 46.74 -31.15 872.44 249.26 685.47 124.64 202.53 -436.23 311.58 -295.99 -171.36 -482.95 249.26 -280.43 -233.69 0 -358.32 -576.43 -296 -31.15 467.37 296 296 233.68 46.74 101.22 -66.22 186.97 225.9 -62.32 677.69 451.79 794.53 -38.94 186.95 202.53 77.9 7.78 257.05c0,0 62.33,210.32 77.9,358.32 15.58,148 7.79,241.47 7.79,241.47l311.59 -38.95 15.57 -459.58 366.11 -560.85 630.96 -77.88 101.26 -366.12 -31.16 -225.89 218.11 -319.38 210.31 -31.16 740.03 140.21 381.68 264.85 -116.85 381.68 280.43 249.28 179.16 -140.21 381.68 233.68 109.07 257.05 225.9 46.74 93.47 -210.31 498.54 -498.54 1191.79 155.79 280.42 241.47 -70.1 327.16 459.59 373.92 475.16 -62.33 280.42 1043.81 903.6 708.85 615.37 147.99 662.11 -381.68 257.06 163.57 202.53 233.69 498.53 15.59 148 -218.11 -85.69 -288.22 186.95 -233.68 537.49 264.83 132.42 272.64 296 148.01 280.43 -163.58 444.01 93.47 171.37 194.74 560.85 -54.53 420.63 -482.95 817.91 46.74 155.79 -233.68 101.26 -669.91 -70.1 -303.79 405.06 -218.11 428.43 70.11 545.27 662.11 186.95 85.69 506.32 23.36 210.31 202.52 428.42 -46.74 163.59 -436.2 140.21 218.11 -31.16 257.05 62.33 280.42 0 334.95 -303.8 124.63c0,0 163.59,693.29 218.11,669.91 54.52,-23.37 747.8,-459.58 747.8,-459.58l202.52 -1776.02 -482.95 -1004.86 15.58 -233.68 366.11 303.78 646.53 1082.76 194.74 -303.8 -444 -514.11 124.64 -280.42 -1191.81 -958.11 0 451.79 -358.32 -179.17 -233.69 179.17 -475.16 85.68 -7.8 -202.52 319.37 -1409.92 615.39 -669.9 490.73 -381.68 358.33 -288.21 -257.06 -997.07 319.37 23.37 179.16 163.58 -54.52 -888.01 397.27 451.8 -31.16 1316.43 272.63 693.27 1176.22 747.79 -327.16 -1534.54 -202.52 -506.32 -584.22 -373.9 7.78 -475.16 280.44 -490.73 31.15 -1067.17 23.38 -498.54 -506.36 -81.77z"/>
   </clipPath>
 </defs>
 <g id="Слой_x0020_1">
  <metadata id="CorelCorpID_0Corel-Layer"/>
  <path class="fil0" d="M20482.58 1558.61l-140.21 -638.75 607.59 -373.9 -327.16 -545.27 -327.17 31.16 -249.27 405.05 -1293.06 576.44 -607.58 1293.07 -934.75 93.47 -1230.75 607.58 -685.49 1028.22 -327.16 -249.27 -233.69 -389.47 -591.99 31.16 -280.42 358.31 -747.8 -155.79 296 -436.21 -420.64 -280.42 -296 -311.59 -482.96 186.95 -373.9 389.48 -810.1 264.84 -186.95 264.85 -825.7 93.48 -296 -296.01 -638.75 467.37 -93.47 592.01 -623.16 -592.01 -607.58 0 -529.7 -358.31 -498.52 -15.59 -373.9 -280.42 -467.37 46.73 -716.65 -15.57 93.47 -482.95 342.75 -124.63 249.26 405.06 327.16 -62.33 93.48 -716.63 -296 -763.37 -451.8 155.78 -763.37 482.95 -451.8 560.85 -872.43 93.47 -1121.7 592.01 -15.57 592.01 -280.42 467.37 -264.85 46.74 -31.15 872.44 249.26 685.47 124.64 202.53 -436.23 311.58 -295.99 -171.36 -482.95 249.26 -280.43 -233.69 0 -358.32 -576.43 -296 -31.15 467.37 296 296 233.68 46.74 101.22 -66.22 186.97 225.9 -62.32 677.69 451.79 794.53 -38.94 186.95 202.53 77.9 7.78 257.05c0,0 62.33,210.32 77.9,358.32 15.58,148 7.79,241.47 7.79,241.47l311.59 -38.95 15.57 -459.58 366.11 -560.85 630.96 -77.88 101.26 -366.12 -31.16 -225.89 218.11 -319.38 210.31 -31.16 740.03 140.21 381.68 264.85 -116.85 381.68 280.43 249.28 179.16 -140.21 381.68 233.68 109.07 257.05 225.9 46.74 93.47 -210.31 498.54 -498.54 1191.79 155.79 280.42 241.47 -70.1 327.16 459.59 373.92 475.16 -62.33 280.42 1043.81 903.6 708.85 615.37 147.99 662.11 -381.68 257.06 163.57 202.53 233.69 498.53 15.59 148 -218.11 -85.69 -288.22 186.95 -233.68 537.49 264.83 132.42 272.64 296 148.01 280.43 -163.58 444.01 93.47 171.37 194.74 560.85 -54.53 420.63 -482.95 817.91 46.74 155.79 -233.68 101.26 -669.91 -70.1 -303.79 405.06 -218.11 428.43 70.11 545.27 662.11 186.95 85.69 506.32 23.36 210.31 202.52 428.42 -46.74 163.59 -436.2 140.21 218.11 -31.16 257.05 62.33 280.42 0 334.95 -303.8 124.63c0,0 163.59,693.29 218.11,669.91 54.52,-23.37 747.8,-459.58 747.8,-459.58l202.52 -1776.02 -482.95 -1004.86 15.58 -233.68 366.11 303.78 646.53 1082.76 194.74 -303.8 -444 -514.11 124.64 -280.42 -1191.81 -958.11 0 451.79 -358.32 -179.17 -233.69 179.17 -475.16 85.68 -7.8 -202.52 319.37 -1409.92 615.39 -669.9 490.73 -381.68 358.33 -288.21 -257.06 -997.07 319.37 23.37 179.16 163.58 -54.52 -888.01 397.27 451.8 -31.16 1316.43 272.63 693.27 1176.22 747.79 -327.16 -1534.54 -202.52 -506.32 -584.22 -373.9 7.78 -475.16 280.44 -490.73 31.15 -1067.17 23.38 -498.54 -506.36 -81.77z"/>
  <g style="clip-path:url(#id0)">
   <g id="_2173280435088">
    <path id="1" class="fil1" d="M3356.4 7356.19c-15.99,-65.28 -26.38,-107.28 -26.38,-107.28l-202.52 -350.53 -31.17 -264.84 -436.21 -350.54 -366.11 210.33 -194.76 -136.36 -436.23 311.58 -295.99 -171.36 -482.95 249.26 -280.43 -233.69 0 -358.32 -576.43 -296 -31.15 467.37 296 296 233.68 46.74 101.22 -66.22 186.97 225.9 -62.32 677.69 451.79 794.53 -38.94 186.95 202.53 77.9 7.78 257.05c0,0 62.33,210.32 77.9,358.32 15.58,148 7.79,241.47 7.79,241.47l311.59 -38.95 15.57 -459.58 366.11 -560.85 630.96 -77.88 101.26 -366.12 -31.16 -225.89 218.11 -319.38 210.31 -31.16 73.18 13.86z"/>
   </g>
  </g>
  <path class="fil2 str0" d="M20482.58 1558.61l-140.21 -638.75 607.59 -373.9 -327.16 -545.27 -327.17 31.16 -249.27 405.05 -1293.06 576.44 -607.58 1293.07 -934.75 93.47 -1230.75 607.58 -685.49 1028.22 -327.16 -249.27 -233.69 -389.47 -591.99 31.16 -280.42 358.31 -747.8 -155.79 296 -436.21 -420.64 -280.42 -296 -311.59 -482.96 186.95 -373.9 389.48 -810.1 264.84 -186.95 264.85 -825.7 93.48 -296 -296.01 -638.75 467.37 -93.47 592.01 -623.16 -592.01 -607.58 0 -529.7 -358.31 -498.52 -15.59 -373.9 -280.42 -467.37 46.73 -716.65 -15.57 93.47 -482.95 342.75 -124.63 249.26 405.06 327.16 -62.33 93.48 -716.63 -296 -763.37 -451.8 155.78 -763.37 482.95 -451.8 560.85 -872.43 93.47 -1121.7 592.01 -15.57 592.01 -280.42 467.37 -264.85 46.74 -31.15 872.44 249.26 685.47 124.64 202.53 -436.23 311.58 -295.99 -171.36 -482.95 249.26 -280.43 -233.69 0 -358.32 -576.43 -296 -31.15 467.37 296 296 233.68 46.74 101.22 -66.22 186.97 225.9 -62.32 677.69 451.79 794.53 -38.94 186.95 202.53 77.9 7.78 257.05c0,0 62.33,210.32 77.9,358.32 15.58,148 7.79,241.47 7.79,241.47l311.59 -38.95 15.57 -459.58 366.11 -560.85 630.96 -77.88 101.26 -366.12 -31.16 -225.89 218.11 -319.38 210.31 -31.16 740.03 140.21 381.68 264.85 -116.85 381.68 280.43 249.28 179.16 -140.21 381.68 233.68 109.07 257.05 225.9 46.74 93.47 -210.31 498.54 -498.54 1191.79 155.79 280.42 241.47 -70.1 327.16 459.59 373.92 475.16 -62.33 280.42 1043.81 903.6 708.85 615.37 147.99 662.11 -381.68 257.06 163.57 202.53 233.69 498.53 15.59 148 -218.11 -85.69 -288.22 186.95 -233.68 537.49 264.83 132.42 272.64 296 148.01 280.43 -163.58 444.01 93.47 171.37 194.74 560.85 -54.53 420.63 -482.95 817.91 46.74 155.79 -233.68 101.26 -669.91 -70.1 -303.79 405.06 -218.11 428.43 70.11 545.27 662.11 186.95 85.69 506.32 23.36 210.31 202.52 428.42 -46.74 163.59 -436.2 140.21 218.11 -31.16 257.05 62.33 280.42 0 334.95 -303.8 124.63c0,0 163.59,693.29 218.11,669.91 54.52,-23.37 747.8,-459.58 747.8,-459.58l202.52 -1776.02 -482.95 -1004.86 15.58 -233.68 366.11 303.78 646.53 1082.76 194.74 -303.8 -444 -514.11 124.64 -280.42 -1191.81 -958.11 0 451.79 -358.32 -179.17 -233.69 179.17 -475.16 85.68 -7.8 -202.52 319.37 -1409.92 615.39 -669.9 490.73 -381.68 358.33 -288.21 -257.06 -997.07 319.37 23.37 179.16 163.58 -54.52 -888.01 397.27 451.8 -31.16 1316.43 272.63 693.27 1176.22 747.79 -327.16 -1534.54 -202.52 -506.32 -584.22 -373.9 7.78 -475.16 280.44 -490.73 31.15 -1067.17 23.38 -498.54 -506.36 -81.77z"/>
  <polygon class="fil1" points="3154.74,4495.29 3256.02,4580.97 3263.81,4690.02 3462.42,4651.07 3548.1,4725.07 3497.46,4966.56 3477.99,5169.08 3450.73,5297.61 3072.93,5278.13 2952.19,5028.87 2983.35,4818.55 2928.83,4690.02 3033.98,4506.97 "/>
  <path class="fil3" d="M5494.34 6557.73l-122.31 0 0 -255.26 79.77 0c21.27,-24.82 44.32,-79.77 69.13,-164.86 25.53,-87.21 40.77,-190.02 45.74,-308.43l7.44 -148.91 461.6 0 0 622.2 101.04 0 0 255.26 -122.31 0 0 -132.95 -520.1 0 0 132.95zm206.34 -755.14l-11.7 129.75c-6.38,89.34 -19.5,167.69 -39.35,235.05 -20.57,70.2 -38.65,115.22 -54.25,135.08l310.57 0 0 -499.88 -205.27 0zm554.13 563.69c-47.51,-47.5 -71.26,-107.77 -71.26,-180.81 0,-73.03 23.75,-132.94 71.26,-179.74 47.51,-47.51 110.61,-71.26 189.32,-71.26 77.99,0 140.74,23.75 188.25,71.26 48.22,46.8 72.32,106.71 72.32,179.74 0,72.33 -24.1,132.6 -72.32,180.81 -48.22,46.8 -110.97,70.2 -188.25,70.2 -78.71,0 -141.81,-23.4 -189.32,-70.2zm96.78 -278.65c-24.81,25.52 -37.22,58.14 -37.22,97.84 0,39.71 12.23,72.51 36.69,98.39 24.47,25.88 55.49,38.82 93.07,38.82 38.28,0 69.66,-12.77 94.12,-38.29 24.47,-25.53 36.7,-58.5 36.7,-98.92 0,-39.7 -12.41,-72.32 -37.23,-97.84 -24.82,-25.53 -56.01,-38.29 -93.59,-38.29 -36.87,0 -67.72,12.76 -92.54,38.29zm822.15 176.55l57.43 89.34c-40.41,55.31 -103.87,82.96 -190.38,82.96 -77.28,0 -140.04,-23.04 -188.25,-69.13 -47.51,-45.38 -71.26,-106.01 -71.26,-181.88 0,-71.61 23.4,-131.17 70.2,-178.68 46.79,-48.21 106,-72.32 177.61,-72.32 85.09,0 149.26,21.63 192.51,64.88l-57.43 96.78c-32.62,-31.19 -72.33,-46.79 -119.12,-46.79 -35.46,0 -66.65,12.76 -93.6,38.29 -26.23,24.1 -39.35,56.72 -39.35,97.84 0,41.13 13.47,74.46 40.42,99.98 28.36,24.82 60.97,37.23 97.84,37.23 47.51,0 88.64,-19.5 123.38,-58.5zm253.13 -195.7l-157.41 0 0 -122.31 436.07 0 0 122.31 -156.35 0 0 356.3 -122.31 0 0 -356.3zm403.09 1.06l-30.84 -89.34c51.76,-30.49 108.13,-45.73 169.11,-45.73 66.65,0 115.22,16.31 145.71,48.92 30.49,32.62 45.73,82.61 45.73,149.97l0 291.42 -106.35 0 0 -55.31c-28.37,41.13 -75.52,61.69 -141.46,61.69 -45.38,0 -81.72,-13.29 -109.02,-39.88 -27.3,-26.59 -40.94,-62.22 -40.94,-106.89 0,-49.64 15.95,-87.93 47.86,-114.87 31.9,-26.94 74.09,-40.42 126.56,-40.42 43.25,0 79.42,10.29 108.49,30.85 1.42,-42.54 -4.79,-73.74 -18.62,-93.6 -13.82,-19.85 -37.4,-29.78 -70.72,-29.78 -36.87,0 -78.71,10.99 -125.51,32.97zm122.32 258.45c41.12,0 71.97,-14.53 92.53,-43.6l0 -48.93c-19.86,-15.6 -47.86,-23.4 -84.03,-23.4 -22.68,0 -41.12,5.32 -55.3,15.96 -14.18,10.63 -21.27,25.17 -21.27,43.6 0,17.02 6.38,30.67 19.14,40.95 12.76,10.28 29.07,15.42 48.93,15.42zm332.9 96.79l0 -478.61c6.38,0 33.5,-0.89 81.36,-2.66 47.86,-1.77 83.49,-2.66 106.89,-2.66 144.65,0 216.97,41.84 216.97,125.5 0,26.95 -8.51,50.52 -25.52,70.73 -17.02,20.21 -38.29,32.09 -63.82,35.63l0 2.13c68.07,16.31 102.11,53.18 102.11,110.61 0,96.43 -75.87,144.65 -227.61,144.65 -21.98,0 -55.66,-1.07 -101.04,-3.19 -11.35,0 -24.29,-0.18 -38.82,-0.53 -14.54,-0.36 -25.53,-0.71 -32.97,-1.07 -7.45,-0.35 -13.3,-0.53 -17.55,-0.53zm198.89 -203.14l-76.58 0 0 106.35c42.54,2.84 69.49,4.26 80.83,4.26 26.95,0 48.04,-4.96 63.29,-14.89 15.24,-9.93 22.86,-23.4 22.86,-40.42 0,-36.87 -30.13,-55.3 -90.4,-55.3zm0 -181.88c-28.36,0 -53.89,0.71 -76.58,2.13l0 105.3 79.77 0c21.98,0 39.71,-4.97 53.18,-14.89 13.47,-9.93 20.21,-23.4 20.21,-40.42 0,-34.74 -25.53,-52.12 -76.58,-52.12zm633.9 -93.59l154.21 0 -184 227.61 206.34 251 -159.54 0 -189.31 -241.43 172.3 -237.18zm-176.56 478.61l-122.31 0 0 -478.61 122.31 0 0 478.61zm462.65 -355.24l-30.84 -89.34c51.76,-30.49 108.13,-45.73 169.11,-45.73 66.65,0 115.22,16.31 145.71,48.92 30.49,32.62 45.73,82.61 45.73,149.97l0 291.42 -106.35 0 0 -55.31c-28.37,41.13 -75.52,61.69 -141.46,61.69 -45.38,0 -81.72,-13.29 -109.02,-39.88 -27.3,-26.59 -40.94,-62.22 -40.94,-106.89 0,-49.64 15.95,-87.93 47.86,-114.87 31.9,-26.94 74.09,-40.42 126.56,-40.42 43.25,0 79.42,10.29 108.49,30.85 1.42,-42.54 -4.79,-73.74 -18.62,-93.6 -13.82,-19.85 -37.4,-29.78 -70.72,-29.78 -36.87,0 -78.71,10.99 -125.51,32.97zm122.32 258.45c41.12,0 71.97,-14.53 92.53,-43.6l0 -48.93c-19.86,-15.6 -47.86,-23.4 -84.03,-23.4 -22.68,0 -41.12,5.32 -55.3,15.96 -14.18,10.63 -21.27,25.17 -21.27,43.6 0,17.02 6.38,30.67 19.14,40.95 12.76,10.28 29.07,15.42 48.93,15.42zm1007.21 96.79l-122.31 0 0 -363.74 -204.21 0 0 363.74 -122.31 0 0 -478.61 448.83 0 0 478.61zm177.62 -58.5c-47.51,-47.5 -71.26,-107.77 -71.26,-180.81 0,-73.03 23.75,-132.94 71.26,-179.74 47.51,-47.51 110.61,-71.26 189.32,-71.26 77.99,0 140.74,23.75 188.25,71.26 48.22,46.8 72.32,106.71 72.32,179.74 0,72.33 -24.1,132.6 -72.32,180.81 -48.22,46.8 -110.97,70.2 -188.25,70.2 -78.71,0 -141.81,-23.4 -189.32,-70.2zm96.78 -278.65c-24.81,25.52 -37.22,58.14 -37.22,97.84 0,39.71 12.23,72.51 36.69,98.39 24.47,25.88 55.49,38.82 93.07,38.82 38.28,0 69.66,-12.77 94.12,-38.29 24.47,-25.53 36.7,-58.5 36.7,-98.92 0,-39.7 -12.41,-72.32 -37.23,-97.84 -24.82,-25.53 -56.01,-38.29 -93.59,-38.29 -36.87,0 -67.72,12.76 -92.54,38.29zm684.95 337.15l0 -478.61c6.38,0 33.5,-0.89 81.36,-2.66 47.86,-1.77 83.49,-2.66 106.89,-2.66 144.65,0 216.97,41.84 216.97,125.5 0,26.95 -8.51,50.52 -25.52,70.73 -17.02,20.21 -38.29,32.09 -63.82,35.63l0 2.13c68.07,16.31 102.11,53.18 102.11,110.61 0,96.43 -75.87,144.65 -227.61,144.65 -21.98,0 -55.66,-1.07 -101.04,-3.19 -11.35,0 -24.29,-0.18 -38.82,-0.53 -14.54,-0.36 -25.53,-0.71 -32.97,-1.07 -7.45,-0.35 -13.3,-0.53 -17.55,-0.53zm198.89 -203.14l-76.58 0 0 106.35c42.54,2.84 69.49,4.26 80.83,4.26 26.95,0 48.04,-4.96 63.29,-14.89 15.24,-9.93 22.86,-23.4 22.86,-40.42 0,-36.87 -30.13,-55.3 -90.4,-55.3zm0 -181.88c-28.36,0 -53.89,0.71 -76.58,2.13l0 105.3 79.77 0c21.98,0 39.71,-4.97 53.18,-14.89 13.47,-9.93 20.21,-23.4 20.21,-40.42 0,-34.74 -25.53,-52.12 -76.58,-52.12zm697.71 224.42l57.43 89.34c-40.41,55.31 -103.87,82.96 -190.38,82.96 -77.28,0 -140.04,-23.04 -188.25,-69.13 -47.51,-45.38 -71.26,-106.01 -71.26,-181.88 0,-71.61 23.4,-131.17 70.2,-178.68 46.79,-48.21 106,-72.32 177.61,-72.32 85.09,0 149.26,21.63 192.51,64.88l-57.43 96.78c-32.62,-31.19 -72.33,-46.79 -119.12,-46.79 -35.46,0 -66.65,12.76 -93.6,38.29 -26.23,24.1 -39.35,56.72 -39.35,97.84 0,41.13 13.47,74.46 40.42,99.98 28.36,24.82 60.97,37.23 97.84,37.23 47.51,0 88.64,-19.5 123.38,-58.5zm505.2 26.59l35.1 86.15c-47.51,39.71 -108.48,59.56 -182.93,59.56 -76.58,0 -138.98,-23.04 -187.19,-69.13 -46.8,-45.38 -70.2,-106.01 -70.2,-181.88 0,-70.9 23.04,-130.46 69.13,-178.68 46.09,-48.21 107.42,-72.32 184,-72.32 63.11,0 116.64,20.92 160.6,62.75 43.96,41.83 65.94,95.01 65.94,159.54 0,28.36 -2.48,50.34 -7.44,65.94l-345.67 0c4.97,34.74 20.39,62.04 46.27,81.9 25.88,19.85 58.32,29.78 97.32,29.78 53.18,0 98.2,-14.54 135.07,-43.61zm-157.41 -254.2c-69.48,0 -111.32,34.75 -125.5,104.23l235.05 0c0.71,-30.49 -9.04,-55.48 -29.25,-74.98 -20.2,-19.5 -46.97,-29.25 -80.3,-29.25zm676.44 85.09l-223.35 303.12 -122.31 0 0 -478.61 122.31 0 0 303.12 223.35 -303.12 122.31 0 0 478.61 -122.31 0 0 -303.12zm-274.4 -414.8l111.67 0c0,23.4 4.61,42.19 13.83,56.37 9.22,14.18 23.05,21.27 41.48,21.27 16.31,0 28.89,-7.26 37.76,-21.8 8.86,-14.53 13.29,-33.15 13.29,-55.84l111.68 0c0,49.64 -14.54,89.52 -43.61,119.66 -29.07,30.13 -68.78,45.2 -119.12,45.2 -55.31,0 -96.96,-14.71 -124.97,-44.14 -28.01,-29.43 -42.01,-69.66 -42.01,-120.72zm924.25 448.83l0 269.09 -130.82 0 0 -744.51c31.2,0 64.88,-0.35 101.04,-1.06 36.87,-0.71 73.74,-1.06 110.61,-1.06 52.47,0 98.03,6.56 136.67,19.67 38.64,13.12 68.6,31.2 89.87,54.25 21.27,23.04 36.87,48.21 46.8,75.51 9.93,27.3 14.89,57.26 14.89,89.87 0,67.36 -24.11,124.44 -72.32,171.24 -47.51,46.8 -114.16,70.19 -199.96,70.19 -43.25,0 -75.51,-1.06 -96.78,-3.19zm93.59 -355.23l-93.59 2.13 0 228.67c37.58,3.54 68.42,5.31 92.53,5.31 41.83,0 75.34,-10.28 100.51,-30.84 25.17,-20.56 37.75,-50.34 37.75,-89.34 0,-77.29 -45.73,-115.93 -137.2,-115.93zm369.07 565.82c-47.51,-47.5 -71.26,-107.77 -71.26,-180.81 0,-73.03 23.75,-132.94 71.26,-179.74 47.51,-47.51 110.61,-71.26 189.32,-71.26 77.99,0 140.74,23.75 188.25,71.26 48.22,46.8 72.32,106.71 72.32,179.74 0,72.33 -24.1,132.6 -72.32,180.81 -48.22,46.8 -110.97,70.2 -188.25,70.2 -78.71,0 -141.81,-23.4 -189.32,-70.2zm96.78 -278.65c-24.81,25.52 -37.22,58.14 -37.22,97.84 0,39.71 12.23,72.51 36.69,98.39 24.47,25.88 55.49,38.82 93.07,38.82 38.28,0 69.66,-12.77 94.12,-38.29 24.47,-25.53 36.7,-58.5 36.7,-98.92 0,-39.7 -12.41,-72.32 -37.23,-97.84 -24.82,-25.53 -56.01,-38.29 -93.59,-38.29 -36.87,0 -67.72,12.76 -92.54,38.29zm822.15 176.55l57.43 89.34c-40.41,55.31 -103.87,82.96 -190.38,82.96 -77.28,0 -140.04,-23.04 -188.25,-69.13 -47.51,-45.38 -71.26,-106.01 -71.26,-181.88 0,-71.61 23.4,-131.17 70.2,-178.68 46.79,-48.21 106,-72.32 177.61,-72.32 85.09,0 149.26,21.63 192.51,64.88l-57.43 96.78c-32.62,-31.19 -72.33,-46.79 -119.12,-46.79 -35.46,0 -66.65,12.76 -93.6,38.29 -26.23,24.1 -39.35,56.72 -39.35,97.84 0,41.13 13.47,74.46 40.42,99.98 28.36,24.82 60.97,37.23 97.84,37.23 47.51,0 88.64,-19.5 123.38,-58.5zm492.44 0l57.43 89.34c-40.41,55.31 -103.87,82.96 -190.38,82.96 -77.28,0 -140.04,-23.04 -188.25,-69.13 -47.51,-45.38 -71.26,-106.01 -71.26,-181.88 0,-71.61 23.4,-131.17 70.2,-178.68 46.79,-48.21 106,-72.32 177.61,-72.32 85.09,0 149.26,21.63 192.51,64.88l-57.43 96.78c-32.62,-31.19 -72.33,-46.79 -119.12,-46.79 -35.46,0 -66.65,12.76 -93.6,38.29 -26.23,24.1 -39.35,56.72 -39.35,97.84 0,41.13 13.47,74.46 40.42,99.98 28.36,24.82 60.97,37.23 97.84,37.23 47.51,0 88.64,-19.5 123.38,-58.5zm500.94 -142.52l-223.35 303.12 -122.31 0 0 -478.61 122.31 0 0 303.12 223.35 -303.12 122.31 0 0 478.61 -122.31 0 0 -303.12zm604.11 0l-223.35 303.12 -122.31 0 0 -478.61 122.31 0 0 303.12 223.35 -303.12 122.31 0 0 478.61 -122.31 0 0 -303.12z"/>
 </g>
</svg>
