<svg width="823" height="440" viewBox="0 0 823 440" fill="none" xmlns="http://www.w3.org/2000/svg">
<g clip-path="url(#clip0_231_188)">
<path fill-rule="evenodd" clip-rule="evenodd" d="M774.145 58.9081L768.845 34.7664L791.81 20.6348L779.444 0.026123L767.079 1.20382L757.658 16.5128L708.786 38.2995L685.822 87.1714L650.493 90.7042L603.977 113.668L578.069 152.53L565.703 143.108L556.871 128.388L534.497 129.566L523.898 143.108L495.635 137.22L506.822 120.734L490.924 110.135L479.737 98.3585L461.483 105.424L447.351 120.145L416.733 130.154L409.667 140.165L378.46 143.698L367.273 132.51L343.131 150.174L339.598 172.549L316.046 150.174H293.082L273.062 136.632L254.22 136.043L240.088 125.444L222.424 127.21L195.338 126.622L198.871 108.369L211.825 103.658L221.246 118.967L233.611 116.612L237.144 89.5265L225.957 60.6747L208.881 66.5624L180.029 84.8157L162.953 106.013L129.979 109.546L87.5845 131.921L86.996 154.296L76.3975 171.961L66.3874 173.727L65.2101 206.701L74.6309 232.609L79.3417 240.263L62.8543 252.04L51.6673 245.563L33.414 254.984L22.8151 246.152V232.609L1.02876 221.421L-0.14856 239.086L11.0388 250.273L19.8708 252.04L23.6965 249.537L30.7631 258.075L28.4077 283.688L45.4832 313.718L44.0114 320.784L51.6661 323.728L51.9602 333.443C51.9602 333.443 54.3159 341.392 54.9044 346.986C55.4933 352.58 55.1988 356.112 55.1988 356.112L66.9755 354.64L67.5639 337.27L81.4012 316.073L105.248 313.129L109.076 299.292L107.898 290.754L116.141 278.683L124.09 277.505L152.06 282.805L166.486 292.815L162.069 307.24L172.668 316.662L179.439 311.363L193.865 320.195L197.988 329.91L206.525 331.677L210.058 323.728L228.901 304.885L273.945 310.774L284.543 319.9L281.894 332.265L299.264 346.397L317.223 344.042L327.821 383.493L361.973 410.284L385.231 415.877L410.256 401.452L419.972 407.634L427.626 416.466L446.468 417.055L452.062 408.812L448.823 397.919L455.889 389.087L476.204 399.096L481.209 409.4L492.396 414.994L502.995 408.812L519.776 412.345L526.253 419.705L547.451 417.644L563.349 399.391L594.262 401.157L600.15 392.325L603.977 367.006L601.328 355.524L616.637 347.28L632.83 349.93L653.438 374.955L660.504 378.194L679.641 379.076L687.589 386.731L703.782 384.964L709.965 368.478L715.264 376.721L714.086 386.437L716.442 397.035V409.695L704.96 414.405C704.96 414.405 711.143 440.608 713.203 439.725C715.264 438.841 741.467 422.355 741.467 422.355L749.121 355.23L730.868 317.251L731.456 308.419L745.294 319.9L769.729 360.823L777.09 349.341L760.309 329.91L765.019 319.312L719.975 283.1V300.175L706.432 293.403L697.599 300.175L679.641 303.413L679.346 295.759L691.417 242.471L714.675 217.152L733.223 202.726L746.766 191.833L737.05 154.148L749.121 155.032L755.892 161.214L753.832 127.652L768.847 144.728L767.669 194.482L777.973 220.685L822.429 248.948L810.063 190.949L802.409 171.813L780.328 157.681L780.622 139.722L791.222 121.175L792.399 80.8411L793.283 61.9987L774.145 58.9081Z" fill="#C2E1FF"/>
<mask id="mask0_231_188" style="mask-type:luminance" maskUnits="userSpaceOnUse" x="-1" y="0" width="824" height="440">
<path d="M774.145 58.9081L768.845 34.7664L791.81 20.6348L779.444 0.026123L767.079 1.20382L757.658 16.5128L708.786 38.2995L685.822 87.1714L650.493 90.7042L603.977 113.668L578.069 152.53L565.703 143.108L556.871 128.388L534.497 129.566L523.898 143.108L495.635 137.22L506.822 120.734L490.924 110.135L479.737 98.3585L461.483 105.424L447.351 120.145L416.733 130.154L409.667 140.165L378.46 143.698L367.273 132.51L343.131 150.174L339.598 172.549L316.046 150.174H293.082L273.062 136.632L254.22 136.043L240.088 125.444L222.424 127.21L195.338 126.622L198.871 108.369L211.825 103.658L221.246 118.967L233.611 116.612L237.144 89.5265L225.957 60.6747L208.881 66.5624L180.029 84.8157L162.953 106.013L129.979 109.546L87.5845 131.921L86.996 154.296L76.3975 171.961L66.3874 173.727L65.2101 206.701L74.6309 232.609L79.3417 240.263L62.8543 252.04L51.6673 245.563L33.414 254.984L22.8151 246.152V232.609L1.02876 221.421L-0.14856 239.086L11.0388 250.273L19.8708 252.04L23.6965 249.537L30.7631 258.075L28.4077 283.688L45.4832 313.718L44.0114 320.784L51.6661 323.728L51.9602 333.443C51.9602 333.443 54.3159 341.392 54.9044 346.986C55.4933 352.58 55.1988 356.112 55.1988 356.112L66.9755 354.64L67.5639 337.27L81.4012 316.073L105.248 313.129L109.076 299.292L107.898 290.754L116.141 278.683L124.09 277.505L152.06 282.805L166.486 292.815L162.069 307.24L172.668 316.662L179.439 311.363L193.865 320.195L197.988 329.91L206.525 331.677L210.058 323.728L228.901 304.885L273.945 310.774L284.543 319.9L281.894 332.265L299.264 346.397L317.223 344.042L327.821 383.493L361.973 410.284L385.231 415.877L410.256 401.452L419.972 407.634L427.626 416.466L446.468 417.055L452.062 408.812L448.823 397.919L455.889 389.087L476.204 399.096L481.209 409.4L492.396 414.994L502.995 408.812L519.776 412.345L526.253 419.705L547.451 417.644L563.349 399.391L594.262 401.157L600.15 392.325L603.977 367.006L601.328 355.524L616.637 347.28L632.83 349.93L653.438 374.955L660.504 378.194L679.641 379.076L687.589 386.731L703.782 384.964L709.965 368.478L715.264 376.721L714.086 386.437L716.442 397.035V409.695L704.96 414.405C704.96 414.405 711.143 440.608 713.203 439.725C715.264 438.841 741.467 422.355 741.467 422.355L749.121 355.23L730.868 317.251L731.456 308.419L745.294 319.9L769.729 360.823L777.09 349.341L760.309 329.91L765.019 319.312L719.975 283.1V300.175L706.432 293.403L697.599 300.175L679.641 303.413L679.346 295.759L691.417 242.471L714.675 217.152L733.223 202.726L746.766 191.833L737.05 154.148L749.121 155.032L755.892 161.214L753.832 127.652L768.847 144.728L767.669 194.482L777.973 220.685L822.429 248.948L810.063 190.949L802.409 171.813L780.328 157.681L780.622 139.722L791.222 121.175L792.399 80.8411L793.283 61.9987L774.145 58.9081Z" fill="white"/>
</mask>
<g mask="url(#mask0_231_188)">
<path fill-rule="evenodd" clip-rule="evenodd" d="M126.856 278.029C126.252 275.562 125.859 273.975 125.859 273.975L118.205 260.726L117.027 250.717L100.54 237.468L86.7027 245.417L79.3417 240.263L62.8543 252.04L51.6673 245.563L33.414 254.984L22.8151 246.152V232.609L1.02876 221.421L-0.14856 239.086L11.0388 250.273L19.8708 252.04L23.6965 249.537L30.7631 258.075L28.4077 283.688L45.4832 313.718L44.0114 320.784L51.6661 323.728L51.9602 333.443C51.9602 333.443 54.3159 341.392 54.9044 346.986C55.4933 352.58 55.1988 356.112 55.1988 356.112L66.9755 354.64L67.5639 337.27L81.4012 316.073L105.248 313.129L109.076 299.292L107.898 290.754L116.141 278.683L124.09 277.505L126.856 278.029Z" fill="#155BFB"/>
</g>
<path fill-rule="evenodd" clip-rule="evenodd" d="M774.145 58.9081L768.845 34.7664L791.81 20.6348L779.444 0.026123L767.079 1.20382L757.658 16.5128L708.786 38.2995L685.822 87.1714L650.493 90.7042L603.977 113.668L578.069 152.53L565.703 143.108L556.871 128.388L534.497 129.566L523.898 143.108L495.635 137.22L506.822 120.734L490.924 110.135L479.737 98.3585L461.483 105.424L447.351 120.145L416.733 130.154L409.667 140.165L378.46 143.698L367.273 132.51L343.131 150.174L339.598 172.549L316.046 150.174H293.082L273.062 136.632L254.22 136.043L240.088 125.444L222.424 127.21L195.338 126.622L198.871 108.369L211.825 103.658L221.246 118.967L233.611 116.612L237.144 89.5265L225.957 60.6747L208.881 66.5624L180.029 84.8157L162.953 106.013L129.979 109.546L87.5845 131.921L86.996 154.296L76.3975 171.961L66.3874 173.727L65.2101 206.701L74.6309 232.609L79.3417 240.263L62.8543 252.04L51.6673 245.563L33.414 254.984L22.8151 246.152V232.609L1.02876 221.421L-0.14856 239.086L11.0388 250.273L19.8708 252.04L23.6965 249.537L30.7631 258.075L28.4077 283.688L45.4832 313.718L44.0114 320.784L51.6661 323.728L51.9602 333.443C51.9602 333.443 54.3159 341.392 54.9044 346.986C55.4933 352.58 55.1988 356.112 55.1988 356.112L66.9755 354.64L67.5639 337.27L81.4012 316.073L105.248 313.129L109.076 299.292L107.898 290.754L116.141 278.683L124.09 277.505L152.06 282.805L166.486 292.815L162.069 307.24L172.668 316.662L179.439 311.363L193.865 320.195L197.988 329.91L206.525 331.677L210.058 323.728L228.901 304.885L273.945 310.774L284.543 319.9L281.894 332.265L299.264 346.397L317.223 344.042L327.821 383.493L361.973 410.284L385.231 415.877L410.256 401.452L419.972 407.634L427.626 416.466L446.468 417.055L452.062 408.812L448.823 397.919L455.889 389.087L476.204 399.096L481.209 409.4L492.396 414.994L502.995 408.812L519.776 412.345L526.253 419.705L547.451 417.644L563.349 399.391L594.262 401.157L600.15 392.325L603.977 367.006L601.328 355.524L616.637 347.28L632.83 349.93L653.438 374.955L660.504 378.194L679.641 379.076L687.589 386.731L703.782 384.964L709.965 368.478L715.264 376.721L714.086 386.437L716.442 397.035V409.695L704.96 414.405C704.96 414.405 711.143 440.608 713.203 439.725C715.264 438.841 741.467 422.355 741.467 422.355L749.121 355.23L730.868 317.251L731.456 308.419L745.294 319.9L769.729 360.823L777.09 349.341L760.309 329.91L765.019 319.312L719.975 283.1V300.175L706.432 293.403L697.599 300.175L679.641 303.413L679.346 295.759L691.417 242.471L714.675 217.152L733.223 202.726L746.766 191.833L737.05 154.148L749.121 155.032L755.892 161.214L753.832 127.652L768.847 144.728L767.669 194.482L777.973 220.685L822.429 248.948L810.063 190.949L802.409 171.813L780.328 157.681L780.622 139.722L791.222 121.175L792.399 80.8411L793.283 61.9987L774.145 58.9081Z" stroke="#2B2A29" stroke-width="2.00013" stroke-miterlimit="22.9256"/>
<path fill-rule="evenodd" clip-rule="evenodd" d="M119.234 169.901L123.062 173.139L123.357 177.261L130.863 175.789L134.101 178.585L132.187 187.713L131.452 195.367L130.421 200.225L116.142 199.489L111.579 190.068L112.757 182.119L110.696 177.261L114.67 170.342L119.234 169.901Z" fill="#155BFB"/>
<path d="M207.66 247.851H203.037V238.204H206.052C206.856 237.265 207.727 235.189 208.665 231.973C209.63 228.676 210.206 224.791 210.394 220.315L210.675 214.687H228.121V238.204H231.94V247.851H227.317V242.826H207.66V247.851ZM215.459 219.31L215.017 224.214C214.775 227.591 214.28 230.552 213.529 233.098C212.752 235.751 212.069 237.453 211.479 238.204H223.217V219.31H215.459ZM236.402 240.615C234.607 238.82 233.709 236.542 233.709 233.781C233.709 231.021 234.607 228.757 236.402 226.988C238.198 225.193 240.583 224.295 243.558 224.295C246.505 224.295 248.877 225.193 250.673 226.988C252.495 228.757 253.406 231.021 253.406 233.781C253.406 236.515 252.495 238.793 250.673 240.615C248.85 242.384 246.478 243.268 243.558 243.268C240.583 243.268 238.198 242.384 236.402 240.615ZM240.06 230.084C239.122 231.048 238.653 232.281 238.653 233.781C238.653 235.282 239.116 236.522 240.04 237.5C240.965 238.478 242.137 238.967 243.558 238.967C245.004 238.967 246.19 238.485 247.115 237.52C248.04 236.555 248.502 235.309 248.502 233.781C248.502 232.281 248.033 231.048 247.095 230.084C246.157 229.119 244.978 228.636 243.558 228.636C242.164 228.636 240.998 229.119 240.06 230.084ZM271.133 236.756L273.304 240.133C271.777 242.223 269.378 243.268 266.109 243.268C263.188 243.268 260.816 242.398 258.994 240.656C257.198 238.941 256.3 236.649 256.3 233.781C256.3 231.075 257.185 228.824 258.954 227.028C260.722 225.206 262.96 224.295 265.666 224.295C268.882 224.295 271.308 225.112 272.942 226.747L270.772 230.405C269.539 229.226 268.038 228.636 266.27 228.636C264.929 228.636 263.751 229.119 262.732 230.084C261.741 230.994 261.245 232.227 261.245 233.781C261.245 235.336 261.754 236.596 262.772 237.56C263.844 238.498 265.077 238.967 266.47 238.967C268.266 238.967 269.82 238.23 271.133 236.756ZM280.701 229.36H274.751V224.737H291.233V229.36H285.323V242.826H280.701V229.36ZM295.936 229.4L294.77 226.023C296.726 224.871 298.857 224.295 301.161 224.295C303.681 224.295 305.516 224.911 306.669 226.144C307.821 227.377 308.397 229.266 308.397 231.812V242.826H304.377V240.736C303.305 242.29 301.523 243.067 299.031 243.067C297.316 243.067 295.942 242.565 294.91 241.56C293.879 240.555 293.363 239.209 293.363 237.52C293.363 235.644 293.966 234.197 295.172 233.179C296.378 232.16 297.972 231.651 299.955 231.651C301.59 231.651 302.957 232.04 304.056 232.817C304.109 231.209 303.875 230.03 303.352 229.279C302.83 228.529 301.939 228.154 300.679 228.154C299.286 228.154 297.704 228.569 295.936 229.4ZM300.559 239.168C302.113 239.168 303.279 238.619 304.056 237.52V235.671C303.305 235.081 302.247 234.786 300.88 234.786C300.023 234.786 299.326 234.988 298.79 235.39C298.254 235.791 297.986 236.341 297.986 237.038C297.986 237.681 298.227 238.197 298.709 238.585C299.192 238.974 299.808 239.168 300.559 239.168ZM313.141 242.826V224.737C313.382 224.737 314.407 224.703 316.216 224.637C318.025 224.57 319.371 224.536 320.256 224.536C325.723 224.536 328.456 226.117 328.456 229.279C328.456 230.298 328.134 231.189 327.492 231.953C326.848 232.716 326.044 233.165 325.079 233.299V233.38C327.652 233.996 328.939 235.39 328.939 237.56C328.939 241.205 326.071 243.027 320.336 243.027C319.505 243.027 318.232 242.987 316.517 242.907C316.088 242.907 315.599 242.9 315.05 242.887C314.501 242.873 314.085 242.86 313.804 242.846C313.522 242.833 313.301 242.826 313.141 242.826ZM320.658 235.149H317.763V239.168C319.371 239.275 320.39 239.329 320.818 239.329C321.837 239.329 322.634 239.142 323.21 238.766C323.786 238.391 324.074 237.882 324.074 237.239C324.074 235.845 322.936 235.149 320.658 235.149ZM320.658 228.274C319.586 228.274 318.621 228.301 317.763 228.355V232.335H320.778C321.609 232.335 322.279 232.147 322.788 231.772C323.297 231.397 323.552 230.887 323.552 230.244C323.552 228.931 322.587 228.274 320.658 228.274ZM344.616 224.737H350.445L343.49 233.34L351.289 242.826H345.259L338.104 233.701L344.616 224.737ZM337.943 242.826H333.32V224.737H337.943V242.826ZM355.429 229.4L354.263 226.023C356.22 224.871 358.35 224.295 360.655 224.295C363.174 224.295 365.01 224.911 366.162 226.144C367.315 227.377 367.891 229.266 367.891 231.812V242.826H363.871V240.736C362.799 242.29 361.017 243.067 358.524 243.067C356.809 243.067 355.436 242.565 354.404 241.56C353.372 240.555 352.857 239.209 352.857 237.52C352.857 235.644 353.46 234.197 354.666 233.179C355.871 232.16 357.466 231.651 359.449 231.651C361.084 231.651 362.451 232.04 363.549 232.817C363.603 231.209 363.368 230.03 362.846 229.279C362.323 228.529 361.432 228.154 360.173 228.154C358.779 228.154 357.198 228.569 355.429 229.4ZM360.052 239.168C361.606 239.168 362.772 238.619 363.549 237.52V235.671C362.799 235.081 361.74 234.786 360.373 234.786C359.516 234.786 358.819 234.988 358.283 235.39C357.747 235.791 357.479 236.341 357.479 237.038C357.479 237.681 357.721 238.197 358.203 238.585C358.685 238.974 359.302 239.168 360.052 239.168ZM398.12 242.826H393.497V229.079H385.779V242.826H381.156V224.737H398.12V242.826ZM404.833 240.615C403.037 238.82 402.14 236.542 402.14 233.781C402.14 231.021 403.037 228.757 404.833 226.988C406.629 225.193 409.014 224.295 411.989 224.295C414.936 224.295 417.308 225.193 419.104 226.988C420.926 228.757 421.837 231.021 421.837 233.781C421.837 236.515 420.926 238.793 419.104 240.615C417.281 242.384 414.909 243.268 411.989 243.268C409.014 243.268 406.629 242.384 404.833 240.615ZM408.491 230.084C407.553 231.048 407.084 232.281 407.084 233.781C407.084 235.282 407.546 236.522 408.471 237.5C409.396 238.478 410.568 238.967 411.989 238.967C413.435 238.967 414.621 238.485 415.546 237.52C416.471 236.555 416.933 235.309 416.933 233.781C416.933 232.281 416.464 231.048 415.526 230.084C414.588 229.119 413.409 228.636 411.989 228.636C410.595 228.636 409.429 229.119 408.491 230.084ZM434.379 242.826V224.737C434.62 224.737 435.645 224.703 437.454 224.637C439.263 224.57 440.609 224.536 441.494 224.536C446.961 224.536 449.694 226.117 449.694 229.279C449.694 230.298 449.373 231.189 448.73 231.953C448.086 232.716 447.283 233.165 446.318 233.299V233.38C448.89 233.996 450.177 235.39 450.177 237.56C450.177 241.205 447.309 243.027 441.574 243.027C440.744 243.027 439.471 242.987 437.755 242.907C437.327 242.907 436.837 242.9 436.288 242.887C435.739 242.873 435.323 242.86 435.042 242.846C434.761 242.833 434.539 242.826 434.379 242.826ZM441.896 235.149H439.002V239.168C440.609 239.275 441.628 239.329 442.057 239.329C443.075 239.329 443.872 239.142 444.449 238.766C445.025 238.391 445.313 237.882 445.313 237.239C445.313 235.845 444.174 235.149 441.896 235.149ZM441.896 228.274C440.824 228.274 439.859 228.301 439.002 228.355V232.335H442.016C442.847 232.335 443.517 232.147 444.026 231.772C444.536 231.397 444.79 230.887 444.79 230.244C444.79 228.931 443.825 228.274 441.896 228.274ZM468.266 236.756L470.437 240.133C468.909 242.223 466.511 243.268 463.241 243.268C460.32 243.268 457.948 242.398 456.126 240.656C454.331 238.941 453.433 236.649 453.433 233.781C453.433 231.075 454.317 228.824 456.086 227.028C457.855 225.206 460.092 224.295 462.799 224.295C466.015 224.295 468.44 225.112 470.075 226.747L467.904 230.405C466.671 229.226 465.171 228.636 463.402 228.636C462.062 228.636 460.883 229.119 459.865 230.084C458.873 230.994 458.377 232.227 458.377 233.781C458.377 235.336 458.886 236.596 459.905 237.56C460.977 238.498 462.209 238.967 463.603 238.967C465.399 238.967 466.953 238.23 468.266 236.756ZM487.36 237.761L488.687 241.017C486.891 242.518 484.587 243.268 481.773 243.268C478.879 243.268 476.52 242.398 474.698 240.656C472.929 238.941 472.045 236.649 472.045 233.781C472.045 231.102 472.916 228.851 474.658 227.028C476.4 225.206 478.718 224.295 481.612 224.295C483.997 224.295 486.02 225.086 487.682 226.667C489.343 228.248 490.174 230.257 490.174 232.696C490.174 233.768 490.08 234.599 489.893 235.189H476.828C477.016 236.502 477.599 237.533 478.577 238.284C479.555 239.034 480.781 239.41 482.255 239.41C484.265 239.41 485.967 238.86 487.36 237.761ZM481.411 228.154C478.785 228.154 477.204 229.467 476.668 232.093H485.551C485.578 230.941 485.21 229.996 484.446 229.259C483.682 228.522 482.671 228.154 481.411 228.154ZM506.977 231.37L498.536 242.826H493.913V224.737H498.536V236.194L506.977 224.737H511.6V242.826H506.977V231.37ZM496.606 215.692H500.827C500.827 216.577 501.001 217.287 501.349 217.823C501.698 218.359 502.221 218.627 502.917 218.627C503.534 218.627 504.009 218.352 504.344 217.803C504.679 217.254 504.847 216.55 504.847 215.692H509.068C509.068 217.568 508.518 219.076 507.419 220.215C506.321 221.354 504.82 221.923 502.917 221.923C500.827 221.923 499.253 221.367 498.194 220.255C497.135 219.143 496.606 217.622 496.606 215.692ZM531.538 232.656V242.826H526.594V214.687C527.773 214.687 529.046 214.674 530.413 214.647C531.806 214.62 533.2 214.607 534.593 214.607C536.576 214.607 538.298 214.855 539.759 215.351C541.219 215.846 542.352 216.53 543.156 217.401C543.959 218.272 544.549 219.223 544.924 220.255C545.3 221.287 545.487 222.419 545.487 223.652C545.487 226.197 544.576 228.355 542.754 230.124C540.958 231.892 538.439 232.776 535.196 232.776C533.562 232.776 532.342 232.736 531.538 232.656ZM535.076 219.23L531.538 219.31V227.953C532.959 228.087 534.124 228.154 535.036 228.154C536.617 228.154 537.883 227.765 538.834 226.988C539.786 226.211 540.261 225.086 540.261 223.612C540.261 220.69 538.533 219.23 535.076 219.23ZM549.025 240.615C547.229 238.82 546.331 236.542 546.331 233.781C546.331 231.021 547.229 228.757 549.025 226.988C550.82 225.193 553.205 224.295 556.18 224.295C559.128 224.295 561.499 225.193 563.295 226.988C565.118 228.757 566.028 231.021 566.028 233.781C566.028 236.515 565.118 238.793 563.295 240.615C561.473 242.384 559.101 243.268 556.18 243.268C553.205 243.268 550.82 242.384 549.025 240.615ZM552.683 230.084C551.745 231.048 551.276 232.281 551.276 233.781C551.276 235.282 551.738 236.522 552.663 237.5C553.587 238.478 554.76 238.967 556.18 238.967C557.627 238.967 558.813 238.485 559.737 237.52C560.662 236.555 561.125 235.309 561.125 233.781C561.125 232.281 560.655 231.048 559.717 230.084C558.779 229.119 557.601 228.636 556.18 228.636C554.787 228.636 553.621 229.119 552.683 230.084ZM583.756 236.756L585.927 240.133C584.399 242.223 582.001 243.268 578.731 243.268C575.81 243.268 573.438 242.398 571.616 240.656C569.82 238.941 568.923 236.649 568.923 233.781C568.923 231.075 569.807 228.824 571.576 227.028C573.344 225.206 575.582 224.295 578.289 224.295C581.505 224.295 583.93 225.112 585.565 226.747L583.394 230.405C582.161 229.226 580.661 228.636 578.892 228.636C577.552 228.636 576.373 229.119 575.354 230.084C574.363 230.994 573.867 232.227 573.867 233.781C573.867 235.336 574.376 236.596 575.395 237.56C576.467 238.498 577.699 238.967 579.093 238.967C580.888 238.967 582.443 238.23 583.756 236.756ZM602.368 236.756L604.538 240.133C603.011 242.223 600.613 243.268 597.343 243.268C594.422 243.268 592.05 242.398 590.228 240.656C588.432 238.941 587.535 236.649 587.535 233.781C587.535 231.075 588.419 228.824 590.188 227.028C591.956 225.206 594.194 224.295 596.901 224.295C600.117 224.295 602.542 225.112 604.177 226.747L602.006 230.405C600.773 229.226 599.272 228.636 597.504 228.636C596.164 228.636 594.985 229.119 593.966 230.084C592.975 230.994 592.479 232.227 592.479 233.781C592.479 235.336 592.988 236.596 594.007 237.56C595.079 238.498 596.311 238.967 597.705 238.967C599.5 238.967 601.055 238.23 602.368 236.756ZM621.301 231.37L612.859 242.826H608.237V224.737H612.859V236.194L621.301 224.737H625.924V242.826H621.301V231.37ZM644.134 231.37L635.692 242.826H631.069V224.737H635.692V236.194L644.134 224.737H648.756V242.826H644.134V231.37Z" fill="#2B2A29"/>
</g>
<defs>
<clipPath id="clip0_231_188">
<rect width="822.576" height="439.722" fill="white"/>
</clipPath>
</defs>
</svg>
